:FULLY-SPECIFIED
:FORCE-ALL-JOINTS-BE-3DOF
:DEGREES
170
root 6.49692 16.0668 -25.663 3.86617 28.9446 1.56364
lfemur -25.106 30.3238 -16.5167
ltibia 40.4515 0 0
lfoot -8.36873 9.47381 0
ltoes 15.225 0 0
rfemur -21.0351 -3.7695 -5.29289
rtibia 60.433 0 0
rfoot 6.9599 -24.4385 0
rtoes 42.889 0 0
lowerback 1.32341 -4.93184 -1.40361
upperback 0.0332858 -6.60617 -2.524
thorax -0.830865 -3.29823 -1.65924
lowerneck -9.56331 -7.1628 -1.53552
upperneck 1.7837 -9.62586 5.25623
head 2.6037 -4.63166 1.44478
lclavicle -9.17699e-14 2.65046e-15 0
lhumerus -49.8016 -41.4075 115.353
lradius 52.3729 0 0
lwrist 15.5445 0 0
lhand 37.3033 28.5624 0
lfingers 7.12502 0 0
lthumb 60.121 42.1875 0
rclavicle -9.17699e-14 2.65046e-15 0
rhumerus -48.4414 -11.882 -78.6334
rradius 90.7794 0 0
rwrist -5.17587 0 0
rhand -39.8536 -50.9115 0
rfingers 7.12502 0 0
rthumb -12.8574 -439.828 0
171
root 6.43394 16.0419 -25.6445 3.99653 27.8787 1.71086
lfemur -23.7772 28.4883 -15.494
ltibia 38.8053 0 0
lfoot -8.93843 7.86053 0
ltoes 17.1072 0 0
rfemur -21.0092 -4.19247 -5.50885
rtibia 59.5629 0 0
rfoot 5.28001 -23.0391 0
rtoes 43.4333 0 0
lowerback 1.06872 -4.81604 -1.39061
upperback 0.00602652 -6.44257 -2.72979
thorax -0.726688 -3.21665 -1.8968
lowerneck -9.71661 -6.90088 -1.3457
upperneck 1.88308 -9.30682 5.21018
head 2.64949 -4.4684 1.4131
lclavicle -8.48432e-14 2.12037e-15 0
lhumerus -50.0307 -41.4285 115.208
lradius 52.468 0 0
lwrist 15.7738 0 0
lhand 37.5017 28.6778 0
lfingers 7.12502 0 0
lthumb 60.2869 42.1005 0
rclavicle -8.48432e-14 2.12037e-15 0
rhumerus -48.4317 -8.96073 -77.655
rradius 92.396 0 0
rwrist -5.86241 0 0
rhand -36.4649 -48.7103 0
rfingers 7.12502 0 0
rthumb -9.62319 -437.192 0
172
root 6.37096 16.017 -25.6261 4.12689 26.8129 1.85809
lfemur -22.4483 26.6527 -14.4712
ltibia 37.159 0 0
lfoot -9.50813 6.24724 0
ltoes 18.9895 0 0
rfemur -20.9834 -4.61543 -5.72481
rtibia 58.6928 0 0
rfoot 3.60013 -21.6396 0
rtoes 43.9777 0 0
lowerback 0.814024 -4.70024 -1.3776
upperback -0.0212327 -6.27896 -2.93558
thorax -0.62251 -3.13507 -2.13435
lowerneck -9.8699 -6.63896 -1.15587
upperneck 1.98245 -8.98777 5.16414
head 2.69527 -4.30514 1.38142
lclavicle -7.79165e-14 1.59027e-15 0
lhumerus -50.2598 -41.4495 115.062
lradius 52.5632 0 0
lwrist 16.0031 0 0
lhand 37.7001 28.7932 0
lfingers 7.12502 0 0
lthumb 60.4529 42.0135 0
rclavicle -7.79165e-14 1.59027e-15 0
rhumerus -48.422 -6.03944 -76.6765
rradius 94.0125 0 0
rwrist -6.54895 0 0
rhand -33.0762 -46.5091 0
rfingers 7.12502 0 0
rthumb -6.38893 -434.555 0
173
root 6.30797 15.9921 -25.6076 4.25726 25.747 2.00531
lfemur -21.1194 24.8172 -13.4484
ltibia 35.5128 0 0
lfoot -10.0778 4.63396 0
ltoes 20.8717 0 0
rfemur -20.9575 -5.0384 -5.94077
rtibia 57.8227 0 0
rfoot 1.92024 -20.2402 0
rtoes 44.522 0 0
lowerback 0.559329 -4.58443 -1.3646
upperback -0.048492 -6.11535 -3.14137
thorax -0.518333 -3.05349 -2.37191
lowerneck -10.0232 -6.37704 -0.966049
upperneck 2.08183 -8.66873 5.1181
head 2.74106 -4.14188 1.34974
lclavicle -7.09898e-14 1.06018e-15 0
lhumerus -50.489 -41.4705 114.916
lradius 52.6583 0 0
lwrist 16.2324 0 0
lhand 37.8985 28.9086 0
lfingers 7.12502 0 0
lthumb 60.6189 41.9265 0
rclavicle -7.09898e-14 1.06018e-15 0
rhumerus -48.4122 -3.11816 -75.6981
rradius 95.6291 0 0
rwrist -7.2355 0 0
rhand -29.6875 -44.3078 0
rfingers 7.12502 0 0
rthumb -3.15467 -431.918 0
174
root 6.24499 15.9672 -25.5892 4.38762 24.6812 2.15254
lfemur -19.7906 22.9816 -12.4256
ltibia 33.8666 0 0
lfoot -10.6475 3.02067 0
ltoes 22.7539 0 0
rfemur -20.9316 -5.46136 -6.15673
rtibia 56.9526 0 0
rfoot 0.240356 -18.8408 0
rtoes 45.0664 0 0
lowerback 0.304634 -4.46863 -1.3516
upperback -0.0757512 -5.95174 -3.34716
thorax -0.414156 -2.97191 -2.60946
lowerneck -10.1765 -6.11512 -0.776224
upperneck 2.1812 -8.34968 5.07205
head 2.78684 -3.97862 1.31807
lclavicle -6.40631e-14 5.30088e-16 0
lhumerus -50.7181 -41.4915 114.771
lradius 52.7534 0 0
lwrist 16.4617 0 0
lhand 38.0969 29.024 0
lfingers 7.12502 0 0
lthumb 60.7849 41.8395 0
rclavicle -6.40631e-14 5.30088e-16 0
rhumerus -48.4025 -0.196871 -74.7197
rradius 97.2457 0 0
rwrist -7.92204 0 0
rhand -26.2988 -42.1066 0
rfingers 7.12502 0 0
rthumb 0.0795857 -429.282 0
175
root 6.18201 15.9424 -25.5707 4.51798 23.6154 2.29976
lfemur -18.4617 21.1461 -11.4029
ltibia 32.2204 0 0
lfoot -11.2172 1.40739 0
ltoes 24.6361 0 0
rfemur -20.9057 -5.88433 -6.37269
rtibia 56.0825 0 0
rfoot -1.43953 -17.4414 0
rtoes 45.6107 0 0
lowerback 0.0499386 -4.35283 -1.3386
upperback -0.10301 -5.78814 -3.55295
thorax -0.309979 -2.89033 -2.84702
lowerneck -10.3298 -5.8532 -0.586399
upperneck 2.28058 -8.03064 5.02601
head 2.83263 -3.81536 1.28639
lclavicle -5.71364e-14 -4.28571e-21 0
lhumerus -50.9472 -41.5125 114.625
lradius 52.8485 0 0
lwrist 16.6909 0 0
lhand 38.2953 29.1394 0
lfingers 7.12502 0 0
lthumb 60.9508 41.7525 0
rclavicle -5.71364e-14 -4.28571e-21 0
rhumerus -48.3928 2.72441 -73.7413
rradius 98.8623 0 0
rwrist -8.60858 0 0
rhand -22.9102 -39.9054 0
rfingers 7.12502 0 0
rthumb 3.31384 -426.645 0
176
root 6.11903 15.9175 -25.5523 4.64834 22.5495 2.44699
lfemur -17.1329 19.3105 -10.3801
ltibia 30.5741 0 0
lfoot -11.7869 -0.2059 0
ltoes 26.5183 0 0
rfemur -20.8799 -6.30729 -6.58865
rtibia 55.2124 0 0
rfoot -3.11941 -16.042 0
rtoes 46.1551 0 0
lowerback -0.204757 -4.23703 -1.32559
upperback -0.13027 -5.62453 -3.75874
thorax -0.205801 -2.80875 -3.08457
lowerneck -10.4831 -5.59128 -0.396573
upperneck 2.37995 -7.71159 4.97997
head 2.87841 -3.6521 1.25471
lclavicle -5.02097e-14 -5.30097e-16 0
lhumerus -51.1763 -41.5335 114.479
lradius 52.9436 0 0
lwrist 16.9202 0 0
lhand 38.4937 29.2548 0
lfingers 7.12502 0 0
lthumb 61.1168 41.6655 0
rclavicle -5.02097e-14 -5.30097e-16 0
rhumerus -48.3831 5.6457 -72.7628
rradius 100.479 0 0
rwrist -9.29512 0 0
rhand -19.5215 -37.7042 0
rfingers 7.12502 0 0
rthumb 6.5481 -424.008 0
177
root 6.05605 15.8926 -25.5338 4.7787 21.4837 2.59422
lfemur -15.804 17.475 -9.35732
ltibia 28.9279 0 0
lfoot -12.3566 -1.81919 0
ltoes 28.4006 0 0
rfemur -20.854 -6.73026 -6.80461
rtibia 54.3423 0 0
rfoot -4.7993 -14.6426 0
rtoes 46.6995 0 0
lowerback -0.459452 -4.12123 -1.31259
upperback -0.157529 -5.46092 -3.96453
thorax -0.101624 -2.72717 -3.32213
lowerneck -10.6364 -5.32936 -0.206748
upperneck 2.47933 -7.39255 4.93392
head 2.9242 -3.48884 1.22303
lclavicle -4.3283e-14 -1.06019e-15 0
lhumerus -51.4054 -41.5545 114.334
lradius 53.0388 0 0
lwrist 17.1495 0 0
lhand 38.6921 29.3702 0
lfingers 7.12502 0 0
lthumb 61.2828 41.5785 0
rclavicle -4.3283e-14 -1.06019e-15 0
rhumerus -48.3734 8.56699 -71.7844
rradius 102.095 0 0
rwrist -9.98166 0 0
rhand -16.1328 -35.503 0
rfingers 7.12502 0 0
rthumb 9.78236 -421.372 0
178
root 5.99307 15.8677 -25.5154 4.90906 20.4178 2.74144
lfemur -14.4751 15.6394 -8.33454
ltibia 27.2817 0 0
lfoot -12.9263 -3.43247 0
ltoes 30.2828 0 0
rfemur -20.8281 -7.15322 -7.02057
rtibia 53.4722 0 0
rfoot -6.47918 -13.2431 0
rtoes 47.2438 0 0
lowerback -0.714147 -4.00543 -1.29959
upperback -0.184788 -5.29732 -4.17032
thorax 0.00255314 -2.64559 -3.55968
lowerneck -10.7897 -5.06744 -0.0169229
upperneck 2.5787 -7.0735 4.88788
head 2.96998 -3.32558 1.19135
lclavicle -3.63563e-14 -1.59028e-15 0
lhumerus -51.6345 -41.5755 114.188
lradius 53.1339 0 0
lwrist 17.3788 0 0
lhand 38.8905 29.4856 0
lfingers 7.12502 0 0
lthumb 61.4487 41.4915 0
rclavicle -3.63563e-14 -1.59028e-15 0
rhumerus -48.3637 11.4883 -70.806
rradius 103.712 0 0
rwrist -10.6682 0 0
rhand -12.7441 -33.3018 0
rfingers 7.12502 0 0
rthumb 13.0166 -418.735 0
179
root 5.93009 15.8428 -25.4969 5.03942 19.352 2.88867
lfemur -13.1463 13.8039 -7.31177
ltibia 25.6355 0 0
lfoot -13.496 -5.04576 0
ltoes 32.165 0 0
rfemur -20.8022 -7.57619 -7.23653
rtibia 52.6021 0 0
rfoot -8.15907 -11.8437 0
rtoes 47.7882 0 0
lowerback -0.968842 -3.88963 -1.28659
upperback -0.212047 -5.13371 -4.37611
thorax 0.10673 -2.56401 -3.79724
lowerneck -10.943 -4.80552 0.172902
upperneck 2.67808 -6.75446 4.84184
head 3.01577 -3.16232 1.15967
lclavicle -2.94296e-14 -2.12037e-15 0
lhumerus -51.8636 -41.5965 114.042
lradius 53.229 0 0
lwrist 17.6081 0 0
lhand 39.0889 29.601 0
lfingers 7.12502 0 0
lthumb 61.6147 41.4045 0
rclavicle -2.94296e-14 -2.12037e-15 0
rhumerus -48.354 14.4096 -69.8276
rradius 105.329 0 0
rwrist -11.3547 0 0
rhand -9.3554 -31.1006 0
rfingers 7.12502 0 0
rthumb 16.2509 -416.098 0
